<svg xmlns="http://www.w3.org/2000/svg" version="1.1" xmlns:xlink="http://www.w3.org/1999/xlink" xmlns:svgjs="http://svgjs.dev/svgjs" width="1500" height="935" viewBox="0 0 1500 935"><g transform="matrix(1,0,0,1,-0.9090909090909918,155.61208931419458)"><svg viewBox="0 0 396 247" data-background-color="#004051" preserveAspectRatio="xMidYMid meet" height="935" width="1500" xmlns="http://www.w3.org/2000/svg" xmlns:xlink="http://www.w3.org/1999/xlink"><g id="tight-bounds" transform="matrix(1,0,0,1,0.2400000000000091,-0.09999999999999432)"><svg viewBox="0 0 395.52 247.2" height="247.2" width="395.52"><g><svg></svg></g><g><svg viewBox="0 0 395.52 247.2" height="247.2" width="395.52"><g transform="matrix(1,0,0,1,75.54432,49.76718645308924)"><svg viewBox="0 0 244.43135999999998 147.6656270938215" height="147.6656270938215" width="244.43135999999998"><g><svg viewBox="0 0 244.43135999999998 147.6656270938215" height="147.6656270938215" width="244.43135999999998"><g><svg viewBox="0 0 244.43135999999998 147.6656270938215" height="147.6656270938215" width="244.43135999999998"><g><svg viewBox="0 0 244.43135999999998 147.6656270938215" height="147.6656270938215" width="244.43135999999998"><g id="textblocktransform"><svg viewBox="0 0 244.43135999999998 147.6656270938215" height="147.6656270938215" width="244.43135999999998" id="textblock"><g><svg viewBox="0 0 244.43135999999998 147.6656270938215" height="147.6656270938215" width="244.43135999999998"><g transform="matrix(1,0,0,1,0,0)"><svg width="244.43135999999998" viewBox="1.85 -25.6 43.699999999999996 26.400000000000002" height="147.6656270938215" data-palette-color="#32fd6b"><path d="M1.85-12.5L1.85-12.5Q1.85-17.95 2.8-20.75 3.75-23.55 5.8-24.58 7.85-25.6 11.85-25.6 15.85-25.6 17.9-24.58 19.95-23.55 20.9-20.75 21.85-17.95 21.85-12.5L21.85-12.5Q21.85-5 19.7-2.1 17.55 0.8 11.85 0.8 6.15 0.8 4-2.1 1.85-5 1.85-12.5ZM8.65-12.5L8.65-12.5Q8.65-4.1 10.25-4.1L10.25-4.1Q12.45-4.1 13.5-4.8L13.5-4.8Q14.05-5.2 14.25-6.25L14.25-6.25Q14.65-8.35 14.65-12.5L14.65-12.5Q14.65-20.8 13.05-20.8L13.05-20.8Q10.05-20.8 9.35-19.43 8.65-18.05 8.65-12.5ZM25.55-12.5L25.55-12.5Q25.55-17.95 26.5-20.75 27.45-23.55 29.5-24.58 31.55-25.6 35.55-25.6 39.55-25.6 41.6-24.58 43.65-23.55 44.6-20.75 45.55-17.95 45.55-12.5L45.55-12.5Q45.55-5 43.4-2.1 41.25 0.8 35.55 0.8 29.85 0.8 27.7-2.1 25.55-5 25.55-12.5ZM32.35-12.5L32.35-12.5Q32.35-4.1 33.95-4.1L33.95-4.1Q36.15-4.1 37.2-4.8L37.2-4.8Q37.75-5.2 37.95-6.25L37.95-6.25Q38.35-8.35 38.35-12.5L38.35-12.5Q38.35-20.8 36.75-20.8L36.75-20.8Q33.75-20.8 33.05-19.43 32.35-18.05 32.35-12.5Z" opacity="1" transform="matrix(1,0,0,1,0,0)" fill="#32fd6b" class="wordmark-text-0" data-fill-palette-color="primary" id="text-0"></path></svg></g></svg></g></svg></g></svg></g><g></g></svg></g></svg></g></svg></g><g><path d="M141.881 14.907A122.216 122.216 0 0 1 253.639 14.907L240.322 14.907A108.899 108.899 0 0 0 155.198 14.907L141.881 14.907M141.881 232.293A122.216 122.216 0 0 0 253.639 232.293L240.322 232.293A108.899 108.899 0 0 1 155.198 232.293L141.881 232.293" fill="#32fd6b" stroke="transparent" data-fill-palette-color="tertiary"></path></g></svg></g><defs></defs></svg><rect width="395.52" height="247.2" fill="none" stroke="none" visibility="hidden"></rect></g></svg></g></svg>